<svg width="24" height="24" viewBox="0 0 24 24" fill="none" xmlns="http://www.w3.org/2000/svg">
<path d="M13.2147 0.808594C12.9755 0.314453 12.4699 0 11.9147 0C11.3595 0 10.8584 0.314453 10.6147 0.808594L7.71227 6.75176L1.23033 7.7041C0.688659 7.78496 0.23727 8.1623 0.0702562 8.67891C-0.0967577 9.19551 0.0386589 9.76602 0.426853 10.1479L5.13033 14.7793L4.01991 21.3244C3.92963 21.8635 4.15533 22.4115 4.6022 22.7305C5.04908 23.0494 5.64039 23.0898 6.12789 22.8338L11.9192 19.7566L17.7105 22.8338C18.198 23.0898 18.7894 23.0539 19.2362 22.7305C19.6831 22.407 19.9088 21.8635 19.8185 21.3244L18.7036 14.7793L23.4071 10.1479C23.7953 9.76602 23.9352 9.19551 23.7637 8.67891C23.5921 8.1623 23.1453 7.78496 22.6036 7.7041L16.1171 6.75176L13.2147 0.808594Z" fill="#FFA600"/>
</svg>
