<svg width="61" height="60" viewBox="0 0 61 60" fill="none" xmlns="http://www.w3.org/2000/svg">
<rect x="0.1875" width="60" height="60" rx="8" fill="#E9ECEF"/>
<path d="M31.125 23.9648V15H21.9844C21.1763 15 20.4013 15.3148 19.8299 15.8752C19.2585 16.4357 18.9375 17.1957 18.9375 17.9883V43.8867C18.9375 44.6793 19.2585 45.4393 19.8299 45.9998C20.4013 46.5602 21.1763 46.875 21.9844 46.875H40.2656C41.0737 46.875 41.8487 46.5602 42.4201 45.9998C42.9915 45.4393 43.3125 44.6793 43.3125 43.8867V26.9531H34.1719C33.3638 26.9531 32.5888 26.6383 32.0174 26.0779C31.446 25.5175 31.125 24.7574 31.125 23.9648ZM23 31.9336C23 31.6694 23.107 31.4161 23.2975 31.2293C23.4879 31.0424 23.7463 30.9375 24.0156 30.9375C24.285 30.9375 24.5433 31.0424 24.7338 31.2293C24.9242 31.4161 25.0313 31.6694 25.0313 31.9336C25.0313 32.1978 24.9242 32.4511 24.7338 32.6379C24.5433 32.8247 24.285 32.9297 24.0156 32.9297C23.7463 32.9297 23.4879 32.8247 23.2975 32.6379C23.107 32.4511 23 32.1978 23 31.9336ZM23 35.918C23 35.6538 23.107 35.4004 23.2975 35.2136C23.4879 35.0268 23.7463 34.9219 24.0156 34.9219C24.285 34.9219 24.5433 35.0268 24.7338 35.2136C24.9242 35.4004 25.0313 35.6538 25.0313 35.918C25.0313 36.1822 24.9242 36.4355 24.7338 36.6223C24.5433 36.8091 24.285 36.9141 24.0156 36.9141C23.7463 36.9141 23.4879 36.8091 23.2975 36.6223C23.107 36.4355 23 36.1822 23 35.918ZM23 39.9023C23 39.6382 23.107 39.3848 23.2975 39.198C23.4879 39.0112 23.7463 38.9063 24.0156 38.9063C24.285 38.9063 24.5433 39.0112 24.7338 39.198C24.9242 39.3848 25.0313 39.6382 25.0313 39.9023C25.0313 40.1665 24.9242 40.4199 24.7338 40.6067C24.5433 40.7935 24.285 40.8984 24.0156 40.8984C23.7463 40.8984 23.4879 40.7935 23.2975 40.6067C23.107 40.4199 23 40.1665 23 39.9023ZM27.0625 31.9336C27.0625 31.6694 27.1695 31.4161 27.36 31.2293C27.5504 31.0424 27.8088 30.9375 28.0781 30.9375H38.2344C38.5037 30.9375 38.7621 31.0424 38.9525 31.2293C39.143 31.4161 39.25 31.6694 39.25 31.9336C39.25 32.1978 39.143 32.4511 38.9525 32.6379C38.7621 32.8247 38.5037 32.9297 38.2344 32.9297H28.0781C27.8088 32.9297 27.5504 32.8247 27.36 32.6379C27.1695 32.4511 27.0625 32.1978 27.0625 31.9336ZM27.0625 35.918C27.0625 35.6538 27.1695 35.4004 27.36 35.2136C27.5504 35.0268 27.8088 34.9219 28.0781 34.9219H38.2344C38.5037 34.9219 38.7621 35.0268 38.9525 35.2136C39.143 35.4004 39.25 35.6538 39.25 35.918C39.25 36.1822 39.143 36.4355 38.9525 36.6223C38.7621 36.8091 38.5037 36.9141 38.2344 36.9141H28.0781C27.8088 36.9141 27.5504 36.8091 27.36 36.6223C27.1695 36.4355 27.0625 36.1822 27.0625 35.918ZM27.0625 39.9023C27.0625 39.6382 27.1695 39.3848 27.36 39.198C27.5504 39.0112 27.8088 38.9063 28.0781 38.9063H38.2344C38.5037 38.9063 38.7621 39.0112 38.9525 39.198C39.143 39.3848 39.25 39.6382 39.25 39.9023C39.25 40.1665 39.143 40.4199 38.9525 40.6067C38.7621 40.7935 38.5037 40.8984 38.2344 40.8984H28.0781C27.8088 40.8984 27.5504 40.7935 27.36 40.6067C27.1695 40.4199 27.0625 40.1665 27.0625 39.9023ZM33.1563 23.9648V15.498L42.8047 24.9609H34.1719C33.9025 24.9609 33.6442 24.856 33.4537 24.6692C33.2633 24.4824 33.1563 24.229 33.1563 23.9648Z" fill="#3F698B"/>
</svg>
