<svg width="61" height="60" viewBox="0 0 61 60" fill="none" xmlns="http://www.w3.org/2000/svg">
<rect x="0.1875" width="60" height="60" rx="8" fill="#E9ECEF"/>
<path d="M33.2976 30.326C33.2976 28.7028 31.9713 27.3819 30.341 27.3819C28.711 27.3819 27.3847 28.7028 27.3847 30.326C27.3847 31.9497 28.711 33.2704 30.341 33.2704C31.9713 33.2704 33.2976 31.9497 33.2976 30.326ZM37.6901 15H22.6849C18.5508 15 15.1875 18.3497 15.1875 22.4669V24.5474H26.22C27.3841 23.7215 28.8059 23.2337 30.341 23.2337C31.8762 23.2337 33.2982 23.7215 34.4623 24.5474H45.1875V22.4669C45.1875 18.3497 41.8241 15 37.6901 15ZM40.7264 22.1016C40.7264 22.5579 40.3517 22.9313 39.8934 22.9313H37.3194C36.8612 22.9313 36.4864 22.5579 36.4864 22.1016V19.538C36.4864 19.0817 36.8612 18.7083 37.3194 18.7083H39.8934C40.3517 18.7083 40.7264 19.0817 40.7264 19.538V22.1016ZM37.4628 30.326C37.4628 34.2372 34.2678 37.4186 30.341 37.4186C26.4141 37.4186 23.2194 34.2372 23.2194 30.326C23.2194 29.2493 23.4629 28.2282 23.896 27.3129H15.1875V37.5331C15.1875 41.6506 18.5508 45 22.6849 45H37.6901C41.8242 45 45.1875 41.6506 45.1875 37.5331V27.3129H36.7862C37.2193 28.2282 37.4628 29.2493 37.4628 30.326Z" fill="#547896"/>
</svg>
