<svg width="60" height="60" viewBox="0 0 60 60" fill="none" xmlns="http://www.w3.org/2000/svg">
<rect width="60" height="60" rx="8" fill="#E9ECEF"/>
<path d="M17.7913 44.0694C16.9662 44.0694 16.2602 43.7759 15.6731 43.1888C15.085 42.6008 14.791 41.8942 14.791 41.0691V20.0668C14.791 19.2418 15.085 18.5352 15.6731 17.9471C16.2602 17.3601 16.9662 17.0665 17.7913 17.0665H38.7936C39.6187 17.0665 40.3252 17.3601 40.9133 17.9471C41.5004 18.5352 41.7939 19.2418 41.7939 20.0668V23.0672H43.2941C43.7191 23.0672 44.0751 23.2107 44.3622 23.4977C44.6502 23.7857 44.7942 24.1423 44.7942 24.5673C44.7942 24.9924 44.6502 25.3484 44.3622 25.6354C44.0751 25.9235 43.7191 26.0675 43.2941 26.0675H41.7939V29.0678H43.2941C43.7191 29.0678 44.0751 29.2113 44.3622 29.4984C44.6502 29.7864 44.7942 30.1429 44.7942 30.568C44.7942 30.993 44.6502 31.3491 44.3622 31.6361C44.0751 31.9241 43.7191 32.0681 43.2941 32.0681H41.7939V35.0684H43.2941C43.7191 35.0684 44.0751 35.212 44.3622 35.499C44.6502 35.787 44.7942 36.1436 44.7942 36.5686C44.7942 36.9937 44.6502 37.3497 44.3622 37.6367C44.0751 37.9248 43.7191 38.0688 43.2941 38.0688H41.7939V41.0691C41.7939 41.8942 41.5004 42.6008 40.9133 43.1888C40.3252 43.7759 39.6187 44.0694 38.7936 44.0694H17.7913ZM22.2918 38.0688H26.7923C27.2173 38.0688 27.5739 37.9248 27.8619 37.6367C28.1489 37.3497 28.2925 36.9937 28.2925 36.5686V33.5683C28.2925 33.1432 28.1489 32.7867 27.8619 32.4987C27.5739 32.2116 27.2173 32.0681 26.7923 32.0681H22.2918C21.8668 32.0681 21.5102 32.2116 21.2222 32.4987C20.9352 32.7867 20.7917 33.1432 20.7917 33.5683V36.5686C20.7917 36.9937 20.9352 37.3497 21.2222 37.6367C21.5102 37.9248 21.8668 38.0688 22.2918 38.0688ZM31.2928 27.5676H34.2931C34.7181 27.5676 35.0747 27.4236 35.3627 27.1356C35.6497 26.8486 35.7933 26.4925 35.7933 26.0675V24.5673C35.7933 24.1423 35.6497 23.7857 35.3627 23.4977C35.0747 23.2107 34.7181 23.0672 34.2931 23.0672H31.2928C30.8677 23.0672 30.5117 23.2107 30.2247 23.4977C29.9366 23.7857 29.7926 24.1423 29.7926 24.5673V26.0675C29.7926 26.4925 29.9366 26.8486 30.2247 27.1356C30.5117 27.4236 30.8677 27.5676 31.2928 27.5676ZM22.2918 30.568H26.7923C27.2173 30.568 27.5739 30.424 27.8619 30.1359C28.1489 29.8489 28.2925 29.4929 28.2925 29.0678V24.5673C28.2925 24.1423 28.1489 23.7857 27.8619 23.4977C27.5739 23.2107 27.2173 23.0672 26.7923 23.0672H22.2918C21.8668 23.0672 21.5102 23.2107 21.2222 23.4977C20.9352 23.7857 20.7917 24.1423 20.7917 24.5673V29.0678C20.7917 29.4929 20.9352 29.8489 21.2222 30.1359C21.5102 30.424 21.8668 30.568 22.2918 30.568ZM31.2928 38.0688H34.2931C34.7181 38.0688 35.0747 37.9248 35.3627 37.6367C35.6497 37.3497 35.7933 36.9937 35.7933 36.5686V30.568C35.7933 30.1429 35.6497 29.7864 35.3627 29.4984C35.0747 29.2113 34.7181 29.0678 34.2931 29.0678H31.2928C30.8677 29.0678 30.5117 29.2113 30.2247 29.4984C29.9366 29.7864 29.7926 30.1429 29.7926 30.568V36.5686C29.7926 36.9937 29.9366 37.3497 30.2247 37.6367C30.5117 37.9248 30.8677 38.0688 31.2928 38.0688Z" fill="#547896"/>
</svg>
