<svg width="60" height="60" viewBox="0 0 60 60" fill="none" xmlns="http://www.w3.org/2000/svg">
<rect width="60" height="60" rx="8" fill="#E9ECEF"/>
<path opacity="0.5" d="M45.625 26.8749H14.375V40.9374C14.375 42.1806 14.8689 43.3729 15.7479 44.252C16.627 45.1311 17.8193 45.6249 19.0625 45.6249H40.9375C42.1807 45.6249 43.373 45.1311 44.2521 44.252C45.1311 43.3729 45.625 42.1806 45.625 40.9374V26.8749ZM22.1875 23.7499C21.7731 23.7499 21.3757 23.5853 21.0826 23.2923C20.7896 22.9993 20.625 22.6018 20.625 22.1874V15.9374C20.625 15.523 20.7896 15.1256 21.0826 14.8326C21.3757 14.5396 21.7731 14.3749 22.1875 14.3749C22.6019 14.3749 22.9993 14.5396 23.2924 14.8326C23.5854 15.1256 23.75 15.523 23.75 15.9374V22.1874C23.75 22.6018 23.5854 22.9993 23.2924 23.2923C22.9993 23.5853 22.6019 23.7499 22.1875 23.7499ZM37.8125 23.7499C37.3981 23.7499 37.0007 23.5853 36.7076 23.2923C36.4146 22.9993 36.25 22.6018 36.25 22.1874V15.9374C36.25 15.523 36.4146 15.1256 36.7076 14.8326C37.0007 14.5396 37.3981 14.3749 37.8125 14.3749C38.2269 14.3749 38.6243 14.5396 38.9174 14.8326C39.2104 15.1256 39.375 15.523 39.375 15.9374V22.1874C39.375 22.6018 39.2104 22.9993 38.9174 23.2923C38.6243 23.5853 38.2269 23.7499 37.8125 23.7499Z" fill="#3F698B"/>
<path d="M40.9375 17.4999H39.375V22.1874C39.375 22.6018 39.2104 22.9993 38.9174 23.2923C38.6243 23.5853 38.2269 23.7499 37.8125 23.7499C37.3981 23.7499 37.0007 23.5853 36.7076 23.2923C36.4146 22.9993 36.25 22.6018 36.25 22.1874V17.4999H23.75V22.1874C23.75 22.6018 23.5854 22.9993 23.2924 23.2923C22.9993 23.5853 22.6019 23.7499 22.1875 23.7499C21.7731 23.7499 21.3757 23.5853 21.0826 23.2923C20.7896 22.9993 20.625 22.6018 20.625 22.1874V17.4999H19.0625C17.8193 17.4999 16.627 17.9938 15.7479 18.8729C14.8689 19.752 14.375 20.9442 14.375 22.1874V26.8749H45.625V22.1874C45.625 20.9442 45.1311 19.752 44.2521 18.8729C43.373 17.9938 42.1807 17.4999 40.9375 17.4999Z" fill="#3F698B"/>
</svg>
