<svg width="65" height="65" viewBox="0 0 65 65" fill="none" xmlns="http://www.w3.org/2000/svg">
<rect width="64.3902" height="64.3902" rx="8" fill="url(#paint0_linear_45_247)"/>
<path fill-rule="evenodd" clip-rule="evenodd" d="M14 14H51V51H14V14ZM42.285 45.0183C40.5691 45.0183 39.5994 44.1242 38.8547 42.9062L36.0289 44.5481C37.0495 46.5646 39.1353 48.1032 42.3651 48.1032C45.6674 48.1032 48.1263 46.3889 48.1263 43.2578C48.1263 40.3548 46.4582 39.0644 43.5044 37.7956L42.6349 37.4241C41.1426 36.7766 40.4966 36.3557 40.4966 35.312C40.4966 34.4687 41.1441 33.8227 42.1616 33.8227C43.1591 33.8227 43.802 34.2436 44.3986 35.312L47.1058 33.5745C45.9603 31.5596 44.3724 30.7903 42.1616 30.7903C39.0567 30.7903 37.0695 32.776 37.0695 35.3845C37.0695 38.2134 38.7345 39.5531 41.2443 40.6215L42.1138 40.9946C43.7002 41.6883 44.6452 42.1107 44.6452 43.3025C44.6452 44.2984 43.7249 45.0183 42.285 45.0183V45.0183ZM28.8108 44.9952C27.616 44.9952 27.118 44.1781 26.5723 43.2069L23.7418 44.9212C24.562 46.6571 26.1745 48.097 28.9572 48.097C32.039 48.097 34.1496 46.4582 34.1496 42.8585V30.9876H30.6731V42.8122C30.6731 44.5497 29.9516 44.9952 28.8092 44.9952H28.8108Z" fill="white"/>
<defs>
<linearGradient id="paint0_linear_45_247" x1="-4.02439" y1="-6.03659" x2="59.0244" y2="72.439" gradientUnits="userSpaceOnUse">
<stop stop-color="#20BF55"/>
<stop offset="1" stop-color="#01BAEF"/>
</linearGradient>
</defs>
</svg>
