<svg width="17" height="14" viewBox="0 0 17 14" fill="none" xmlns="http://www.w3.org/2000/svg">
<path d="M1.9783 8.04641H11.9666L8.94747 11.1207C8.60519 11.4573 8.46792 11.9558 8.58842 12.4245C8.70891 12.8933 9.06842 13.2594 9.52877 13.3821C9.98912 13.5048 10.4787 13.365 10.8093 13.0165L16.076 7.65358C16.3236 7.40205 16.4628 7.06052 16.4628 6.70435C16.4628 6.34818 16.3236 6.00665 16.076 5.75512L10.8093 0.392236C10.2944 -0.131269 9.46027 -0.130668 8.94615 0.393577C8.43204 0.917823 8.43263 1.76719 8.94747 2.2907L11.9666 5.36497H1.9783C1.25112 5.36497 0.661621 5.96523 0.661621 6.70569C0.661621 7.44615 1.25112 8.04641 1.9783 8.04641Z" fill="#252F40"/>
</svg>
