<svg width="17" height="14" viewBox="0 0 17 14" fill="none" xmlns="http://www.w3.org/2000/svg">
<path d="M2.27908 8.36459H12.2674L9.24825 11.4389C8.90597 11.7755 8.7687 12.274 8.8892 12.7427C9.00969 13.2115 9.36921 13.5776 9.82955 13.7003C10.2899 13.8229 10.7794 13.6832 11.11 13.3346L16.3767 7.97176C16.6244 7.72023 16.7636 7.3787 16.7636 7.02253C16.7636 6.66636 16.6244 6.32483 16.3767 6.0733L11.11 0.710413C10.5952 0.186908 9.76105 0.187508 9.24693 0.711753C8.73282 1.236 8.73341 2.08537 9.24825 2.60887L12.2674 5.68315H2.27908C1.5519 5.68315 0.962402 6.28341 0.962402 7.02387C0.962402 7.76433 1.5519 8.36459 2.27908 8.36459Z" fill="white"/>
</svg>
